%TF.GenerationSoftware,KiCad,Pcbnew,9.0.2*%
%TF.CreationDate,2026-04-26T10:36:09+05:30*%
%TF.ProjectId,Smart_Audio_Gadget,536d6172-745f-4417-9564-696f5f476164,rev?*%
%TF.SameCoordinates,Original*%
%TF.FileFunction,Copper,L2,Bot*%
%TF.FilePolarity,Positive*%
%FSLAX46Y46*%
G04 Gerber Fmt 4.6, Leading zero omitted, Abs format (unit mm)*
G04 Created by KiCad (PCBNEW 9.0.2) date 2026-04-26 10:36:09*
%MOMM*%
%LPD*%
G01*
G04 APERTURE LIST*
G04 Aperture macros list*
%AMRoundRect*
0 Rectangle with rounded corners*
0 $1 Rounding radius*
0 $2 $3 $4 $5 $6 $7 $8 $9 X,Y pos of 4 corners*
0 Add a 4 corners polygon primitive as box body*
4,1,4,$2,$3,$4,$5,$6,$7,$8,$9,$2,$3,0*
0 Add four circle primitives for the rounded corners*
1,1,$1+$1,$2,$3*
1,1,$1+$1,$4,$5*
1,1,$1+$1,$6,$7*
1,1,$1+$1,$8,$9*
0 Add four rect primitives between the rounded corners*
20,1,$1+$1,$2,$3,$4,$5,0*
20,1,$1+$1,$4,$5,$6,$7,0*
20,1,$1+$1,$6,$7,$8,$9,0*
20,1,$1+$1,$8,$9,$2,$3,0*%
G04 Aperture macros list end*
%TA.AperFunction,ComponentPad*%
%ADD10R,1.700000X1.700000*%
%TD*%
%TA.AperFunction,ComponentPad*%
%ADD11C,1.700000*%
%TD*%
%TA.AperFunction,ComponentPad*%
%ADD12C,1.600000*%
%TD*%
%TA.AperFunction,ComponentPad*%
%ADD13RoundRect,0.250000X-0.550000X-0.550000X0.550000X-0.550000X0.550000X0.550000X-0.550000X0.550000X0*%
%TD*%
%TA.AperFunction,HeatsinkPad*%
%ADD14O,1.000000X2.100000*%
%TD*%
%TA.AperFunction,HeatsinkPad*%
%ADD15O,1.000000X1.600000*%
%TD*%
%TA.AperFunction,ViaPad*%
%ADD16C,0.600000*%
%TD*%
%TA.AperFunction,Conductor*%
%ADD17C,0.200000*%
%TD*%
G04 APERTURE END LIST*
D10*
%TO.P,J3,1,Pin_1*%
%TO.N,/+3V3*%
X81280000Y-22860000D03*
D11*
%TO.P,J3,2,Pin_2*%
%TO.N,GND*%
X83820000Y-22860000D03*
%TO.P,J3,3,Pin_3*%
%TO.N,/DISP_CS*%
X86360000Y-22860000D03*
%TO.P,J3,4,Pin_4*%
%TO.N,/DISP_RST*%
X88900000Y-22860000D03*
%TO.P,J3,5,Pin_5*%
%TO.N,/DISP_DC*%
X91440000Y-22860000D03*
%TO.P,J3,6,Pin_6*%
%TO.N,/VSPI_MOSI*%
X93980000Y-22860000D03*
%TO.P,J3,7,Pin_7*%
%TO.N,/VSPI_SCK*%
X96520000Y-22860000D03*
%TO.P,J3,8,Pin_8*%
%TO.N,/+3V3*%
X99060000Y-22860000D03*
%TO.P,J3,9,Pin_9*%
%TO.N,unconnected-(J3-Pin_9-Pad9)*%
X101600000Y-22860000D03*
%TO.P,J3,10,Pin_10*%
%TO.N,/VSPI_SCK*%
X104140000Y-22860000D03*
%TO.P,J3,11,Pin_11*%
%TO.N,/TOUCH_CS*%
X106680000Y-22860000D03*
%TO.P,J3,12,Pin_12*%
%TO.N,/VSPI_MOSI*%
X109220000Y-22860000D03*
%TO.P,J3,13,Pin_13*%
%TO.N,/TOUCH_MISO*%
X111760000Y-22860000D03*
%TO.P,J3,14,Pin_14*%
%TO.N,/TOUCH_IRQ*%
X114300000Y-22860000D03*
%TD*%
D12*
%TO.P,R4,1*%
%TO.N,/+3V3*%
X66040000Y-55880000D03*
%TO.P,R4,2*%
%TO.N,/BTN_APP*%
X76200000Y-55880000D03*
%TD*%
D10*
%TO.P,J9,1,Pin_1*%
%TO.N,/+3V3*%
X134620000Y-25400000D03*
D11*
%TO.P,J9,2,Pin_2*%
%TO.N,GND*%
X134620000Y-27940000D03*
%TO.P,J9,3,Pin_3*%
%TO.N,/EXT_TOUCH*%
X134620000Y-30480000D03*
%TD*%
D12*
%TO.P,R1,1*%
%TO.N,Net-(J11-CC2)*%
X124460000Y-45720000D03*
%TO.P,R1,2*%
%TO.N,GND*%
X134620000Y-45720000D03*
%TD*%
%TO.P,C1,1*%
%TO.N,GND*%
X111760000Y-91440000D03*
%TO.P,C1,2*%
%TO.N,/+5V*%
X116760000Y-91440000D03*
%TD*%
%TO.P,R2,1*%
%TO.N,Net-(J11-CC1)*%
X124460000Y-43180000D03*
%TO.P,R2,2*%
%TO.N,GND*%
X134620000Y-43180000D03*
%TD*%
D13*
%TO.P,C2,1*%
%TO.N,/+3V3*%
X101640000Y-91440000D03*
D12*
%TO.P,C2,2*%
%TO.N,GND*%
X104140000Y-91440000D03*
%TD*%
%TO.P,C4,1*%
%TO.N,GND*%
X111840000Y-93980000D03*
%TO.P,C4,2*%
%TO.N,/+5V*%
X116840000Y-93980000D03*
%TD*%
D14*
%TO.P,J11,S1,SHIELD*%
%TO.N,unconnected-(J11-SHIELD-PadS1)_1*%
X94990000Y-99975000D03*
D15*
%TO.N,unconnected-(J11-SHIELD-PadS1)_2*%
X94990000Y-104155000D03*
D14*
%TO.N,unconnected-(J11-SHIELD-PadS1)_3*%
X103630000Y-99975000D03*
D15*
%TO.N,unconnected-(J11-SHIELD-PadS1)*%
X103630000Y-104155000D03*
%TD*%
D13*
%TO.P,C3,1*%
%TO.N,/+3V3*%
X94020000Y-91440000D03*
D12*
%TO.P,C3,2*%
%TO.N,GND*%
X96520000Y-91440000D03*
%TD*%
D10*
%TO.P,J7,1,Pin_1*%
%TO.N,/BTN_MUSIC*%
X60960000Y-38100000D03*
D11*
%TO.P,J7,2,Pin_2*%
%TO.N,GND*%
X60960000Y-40640000D03*
%TD*%
D10*
%TO.P,J6,1,Pin_1*%
%TO.N,/BTN_SETUP*%
X60960000Y-27940000D03*
D11*
%TO.P,J6,2,Pin_2*%
%TO.N,GND*%
X60960000Y-30480000D03*
%TD*%
D12*
%TO.P,R3,1*%
%TO.N,Net-(J10-Pin_1)*%
X66040000Y-53340000D03*
%TO.P,R3,2*%
%TO.N,/PAT_SENS*%
X76200000Y-53340000D03*
%TD*%
D10*
%TO.P,J8,1,Pin_1*%
%TO.N,/BTN_APP*%
X60480000Y-50800000D03*
D11*
%TO.P,J8,2,Pin_2*%
%TO.N,GND*%
X60480000Y-53340000D03*
%TD*%
D10*
%TO.P,J17,1*%
%TO.N,N/C*%
X114300000Y-43180000D03*
D11*
%TO.P,J17,2*%
X114300000Y-45720000D03*
%TO.P,J17,3*%
X114300000Y-48260000D03*
%TO.P,J17,4*%
X114300000Y-50800000D03*
%TO.P,J17,5*%
X114300000Y-53340000D03*
%TO.P,J17,6*%
X114300000Y-55880000D03*
%TO.P,J17,7*%
X114300000Y-58420000D03*
%TO.P,J17,8*%
X114300000Y-60960000D03*
%TO.P,J17,9*%
X114300000Y-63500000D03*
%TO.P,J17,10*%
X114300000Y-66040000D03*
%TO.P,J17,11*%
X114300000Y-68580000D03*
%TO.P,J17,12*%
X114300000Y-71120000D03*
%TO.P,J17,13*%
X114300000Y-73660000D03*
%TO.P,J17,14*%
X114300000Y-76200000D03*
%TO.P,J17,15*%
X114300000Y-78740000D03*
%TD*%
D10*
%TO.P,J10,1,Pin_1*%
%TO.N,Net-(J10-Pin_1)*%
X60960000Y-66040000D03*
%TD*%
%TO.P,J1,1,Pin_1*%
%TO.N,unconnected-(J1-Pin_1-Pad1)*%
X86360000Y-43180000D03*
D11*
%TO.P,J1,2,Pin_2*%
%TO.N,unconnected-(J1-Pin_2-Pad2)*%
X86360000Y-45720000D03*
%TO.P,J1,3,Pin_3*%
%TO.N,unconnected-(J1-Pin_3-Pad3)*%
X86360000Y-48260000D03*
%TO.P,J1,4,Pin_4*%
%TO.N,/BTN_APP*%
X86360000Y-50800000D03*
%TO.P,J1,5,Pin_5*%
%TO.N,unconnected-(J1-Pin_5-Pad5)*%
X86360000Y-53340000D03*
%TO.P,J1,6,Pin_6*%
%TO.N,/I2S_WS*%
X86360000Y-55880000D03*
%TO.P,J1,7,Pin_7*%
%TO.N,/PAT_SENS*%
X86360000Y-58420000D03*
%TO.P,J1,8,Pin_8*%
%TO.N,/I2S_DIN*%
X86360000Y-60960000D03*
%TO.P,J1,9,Pin_9*%
%TO.N,/I2S_BCLK*%
X86360000Y-63500000D03*
%TO.P,J1,10,Pin_10*%
%TO.N,/TOUCH_IRQ*%
X86360000Y-66040000D03*
%TO.P,J1,11,Pin_11*%
%TO.N,/HSPI_SCK*%
X86360000Y-68580000D03*
%TO.P,J1,12,Pin_12*%
%TO.N,/HSPI_MISO*%
X86360000Y-71120000D03*
%TO.P,J1,13,Pin_13*%
%TO.N,/HSPI_MOSI*%
X86360000Y-73660000D03*
%TO.P,J1,14,Pin_14*%
%TO.N,GND*%
X86360000Y-76200000D03*
%TO.P,J1,15,Pin_15*%
%TO.N,unconnected-(J1-Pin_15-Pad15)*%
X86360000Y-78740000D03*
%TD*%
D10*
%TO.P,J5,1,Pin_1*%
%TO.N,/+5V*%
X134620000Y-55880000D03*
D11*
%TO.P,J5,2,Pin_2*%
%TO.N,GND*%
X134620000Y-58420000D03*
%TO.P,J5,3,Pin_3*%
%TO.N,/+5V*%
X134620000Y-60960000D03*
%TO.P,J5,4,Pin_4*%
%TO.N,unconnected-(J5-Pin_4-Pad4)*%
X134620000Y-63500000D03*
%TO.P,J5,5,Pin_5*%
%TO.N,/I2S_DIN*%
X134620000Y-66040000D03*
%TO.P,J5,6,Pin_6*%
%TO.N,/I2S_BCLK*%
X134620000Y-68580000D03*
%TO.P,J5,7,Pin_7*%
%TO.N,/I2S_WS*%
X134620000Y-71120000D03*
%TD*%
D16*
%TO.N,GND*%
X132080000Y-93980000D03*
%TO.N,/+3V3*%
X78740000Y-73660000D03*
X99060000Y-93980000D03*
%TO.N,/HSPI_MOSI*%
X137160000Y-83820000D03*
%TO.N,/I2S_BCLK*%
X124460000Y-66040000D03*
%TO.N,/I2S_WS*%
X119380000Y-66040000D03*
%TO.N,/I2S_DIN*%
X121920000Y-63500000D03*
%TO.N,/BTN_APP*%
X66040000Y-48260000D03*
%TO.N,/HSPI_SCK*%
X139700000Y-81280000D03*
%TO.N,/TOUCH_IRQ*%
X109220000Y-33020000D03*
%TO.N,/HSPI_MISO*%
X127000000Y-96520000D03*
%TO.N,/VSPI_SCK*%
X93980000Y-20320000D03*
X104140000Y-22860000D03*
%TO.N,Net-(J11-CC1)*%
X99060000Y-96520000D03*
X99060000Y-88900000D03*
%TD*%
D17*
%TO.N,GND*%
X132080000Y-89749943D02*
X140301000Y-81528943D01*
X140301000Y-64101000D02*
X134620000Y-58420000D01*
X132080000Y-93980000D02*
X132080000Y-89749943D01*
X140301000Y-81528943D02*
X140301000Y-64101000D01*
%TO.N,/+3V3*%
X78740000Y-73660000D02*
X94020000Y-88940000D01*
X99060000Y-93980000D02*
X101600000Y-91440000D01*
X101600000Y-91440000D02*
X101640000Y-91440000D01*
X94020000Y-88940000D02*
X94020000Y-91440000D01*
%TO.N,/HSPI_MOSI*%
X85209000Y-72509000D02*
X86360000Y-73660000D01*
X85883240Y-69969000D02*
X85209000Y-70643240D01*
X123309000Y-69969000D02*
X85883240Y-69969000D01*
X137160000Y-83820000D02*
X123309000Y-69969000D01*
X85209000Y-70643240D02*
X85209000Y-72509000D01*
%TO.N,/I2S_BCLK*%
X87511000Y-64651000D02*
X86360000Y-63500000D01*
X124460000Y-66040000D02*
X123071000Y-64651000D01*
X123071000Y-64651000D02*
X87511000Y-64651000D01*
%TO.N,/I2S_WS*%
X119981000Y-66641000D02*
X124708943Y-66641000D01*
X124708943Y-66641000D02*
X125061000Y-66288943D01*
X90289000Y-59809000D02*
X86360000Y-55880000D01*
X125061000Y-65791057D02*
X119078943Y-59809000D01*
X125061000Y-66288943D02*
X125061000Y-65791057D01*
X119078943Y-59809000D02*
X90289000Y-59809000D01*
X119380000Y-66040000D02*
X119981000Y-66641000D01*
%TO.N,/I2S_DIN*%
X121920000Y-63500000D02*
X120769000Y-62349000D01*
X87749000Y-62349000D02*
X86360000Y-60960000D01*
X120769000Y-62349000D02*
X87749000Y-62349000D01*
%TO.N,/BTN_APP*%
X81280000Y-55880000D02*
X86360000Y-50800000D01*
X73660000Y-55880000D02*
X81280000Y-55880000D01*
X66040000Y-48260000D02*
X73660000Y-55880000D01*
%TO.N,/HSPI_SCK*%
X88900000Y-68580000D02*
X86360000Y-68580000D01*
X90051000Y-67429000D02*
X88900000Y-68580000D01*
X125849000Y-67429000D02*
X90051000Y-67429000D01*
X139700000Y-81280000D02*
X125849000Y-67429000D01*
%TO.N,/TOUCH_IRQ*%
X109220000Y-33020000D02*
X109220000Y-27940000D01*
X109220000Y-27940000D02*
X114300000Y-22860000D01*
%TO.N,/HSPI_MISO*%
X127000000Y-96520000D02*
X111760000Y-96520000D01*
X111760000Y-96520000D02*
X86360000Y-71120000D01*
%TO.N,/VSPI_SCK*%
X93980000Y-20320000D02*
X101600000Y-20320000D01*
X101600000Y-20320000D02*
X104140000Y-17780000D01*
X104140000Y-17780000D02*
X104140000Y-22860000D01*
%TO.N,Net-(J11-CC1)*%
X98459000Y-89501000D02*
X98459000Y-95919000D01*
X98459000Y-95919000D02*
X99060000Y-96520000D01*
X99060000Y-88900000D02*
X98459000Y-89501000D01*
%TD*%
M02*
