%TF.GenerationSoftware,KiCad,Pcbnew,9.0.2*%
%TF.CreationDate,2026-04-26T10:36:09+05:30*%
%TF.ProjectId,Smart_Audio_Gadget,536d6172-745f-4417-9564-696f5f476164,rev?*%
%TF.SameCoordinates,Original*%
%TF.FileFunction,Soldermask,Top*%
%TF.FilePolarity,Negative*%
%FSLAX46Y46*%
G04 Gerber Fmt 4.6, Leading zero omitted, Abs format (unit mm)*
G04 Created by KiCad (PCBNEW 9.0.2) date 2026-04-26 10:36:09*
%MOMM*%
%LPD*%
G01*
G04 APERTURE LIST*
G04 Aperture macros list*
%AMRoundRect*
0 Rectangle with rounded corners*
0 $1 Rounding radius*
0 $2 $3 $4 $5 $6 $7 $8 $9 X,Y pos of 4 corners*
0 Add a 4 corners polygon primitive as box body*
4,1,4,$2,$3,$4,$5,$6,$7,$8,$9,$2,$3,0*
0 Add four circle primitives for the rounded corners*
1,1,$1+$1,$2,$3*
1,1,$1+$1,$4,$5*
1,1,$1+$1,$6,$7*
1,1,$1+$1,$8,$9*
0 Add four rect primitives between the rounded corners*
20,1,$1+$1,$2,$3,$4,$5,0*
20,1,$1+$1,$4,$5,$6,$7,0*
20,1,$1+$1,$6,$7,$8,$9,0*
20,1,$1+$1,$8,$9,$2,$3,0*%
G04 Aperture macros list end*
%ADD10R,1.700000X1.700000*%
%ADD11C,1.700000*%
%ADD12C,1.600000*%
%ADD13RoundRect,0.250000X-0.550000X-0.550000X0.550000X-0.550000X0.550000X0.550000X-0.550000X0.550000X0*%
%ADD14C,0.650000*%
%ADD15R,0.600000X1.450000*%
%ADD16R,0.300000X1.450000*%
%ADD17O,1.000000X2.100000*%
%ADD18O,1.000000X1.600000*%
%ADD19RoundRect,0.375000X-0.625000X-0.375000X0.625000X-0.375000X0.625000X0.375000X-0.625000X0.375000X0*%
%ADD20RoundRect,0.500000X-0.500000X-1.400000X0.500000X-1.400000X0.500000X1.400000X-0.500000X1.400000X0*%
G04 APERTURE END LIST*
D10*
%TO.C,J3*%
X81280000Y-22860000D03*
D11*
X83820000Y-22860000D03*
X86360000Y-22860000D03*
X88900000Y-22860000D03*
X91440000Y-22860000D03*
X93980000Y-22860000D03*
X96520000Y-22860000D03*
X99060000Y-22860000D03*
X101600000Y-22860000D03*
X104140000Y-22860000D03*
X106680000Y-22860000D03*
X109220000Y-22860000D03*
X111760000Y-22860000D03*
X114300000Y-22860000D03*
%TD*%
D12*
%TO.C,R4*%
X66040000Y-55880000D03*
X76200000Y-55880000D03*
%TD*%
D10*
%TO.C,J9*%
X134620000Y-25400000D03*
D11*
X134620000Y-27940000D03*
X134620000Y-30480000D03*
%TD*%
D12*
%TO.C,R1*%
X124460000Y-45720000D03*
X134620000Y-45720000D03*
%TD*%
%TO.C,C1*%
X111760000Y-91440000D03*
X116760000Y-91440000D03*
%TD*%
%TO.C,R2*%
X124460000Y-43180000D03*
X134620000Y-43180000D03*
%TD*%
D13*
%TO.C,C2*%
X101640000Y-91440000D03*
D12*
X104140000Y-91440000D03*
%TD*%
%TO.C,C4*%
X111840000Y-93980000D03*
X116840000Y-93980000D03*
%TD*%
D14*
%TO.C,J11*%
X96420000Y-100505000D03*
X102200000Y-100505000D03*
D15*
X96060000Y-99060000D03*
X96860000Y-99060000D03*
D16*
X98060000Y-99060000D03*
X99060000Y-99060000D03*
X99560000Y-99060000D03*
X100560000Y-99060000D03*
D15*
X101760000Y-99060000D03*
X102560000Y-99060000D03*
X102560000Y-99060000D03*
X101760000Y-99060000D03*
D16*
X101060000Y-99060000D03*
X100060000Y-99060000D03*
X98560000Y-99060000D03*
X97560000Y-99060000D03*
D15*
X96860000Y-99060000D03*
X96060000Y-99060000D03*
D17*
X94990000Y-99975000D03*
D18*
X94990000Y-104155000D03*
D17*
X103630000Y-99975000D03*
D18*
X103630000Y-104155000D03*
%TD*%
D13*
%TO.C,C3*%
X94020000Y-91440000D03*
D12*
X96520000Y-91440000D03*
%TD*%
D19*
%TO.C,U1*%
X110540000Y-99300000D03*
X110540000Y-101600000D03*
D20*
X116840000Y-101600000D03*
D19*
X110540000Y-103900000D03*
%TD*%
D10*
%TO.C,J7*%
X60960000Y-38100000D03*
D11*
X60960000Y-40640000D03*
%TD*%
D10*
%TO.C,J6*%
X60960000Y-27940000D03*
D11*
X60960000Y-30480000D03*
%TD*%
D12*
%TO.C,R3*%
X66040000Y-53340000D03*
X76200000Y-53340000D03*
%TD*%
D10*
%TO.C,J8*%
X60480000Y-50800000D03*
D11*
X60480000Y-53340000D03*
%TD*%
D10*
%TO.C,J17*%
X114300000Y-43180000D03*
D11*
X114300000Y-45720000D03*
X114300000Y-48260000D03*
X114300000Y-50800000D03*
X114300000Y-53340000D03*
X114300000Y-55880000D03*
X114300000Y-58420000D03*
X114300000Y-60960000D03*
X114300000Y-63500000D03*
X114300000Y-66040000D03*
X114300000Y-68580000D03*
X114300000Y-71120000D03*
X114300000Y-73660000D03*
X114300000Y-76200000D03*
X114300000Y-78740000D03*
%TD*%
D10*
%TO.C,J10*%
X60960000Y-66040000D03*
%TD*%
%TO.C,J1*%
X86360000Y-43180000D03*
D11*
X86360000Y-45720000D03*
X86360000Y-48260000D03*
X86360000Y-50800000D03*
X86360000Y-53340000D03*
X86360000Y-55880000D03*
X86360000Y-58420000D03*
X86360000Y-60960000D03*
X86360000Y-63500000D03*
X86360000Y-66040000D03*
X86360000Y-68580000D03*
X86360000Y-71120000D03*
X86360000Y-73660000D03*
X86360000Y-76200000D03*
X86360000Y-78740000D03*
%TD*%
D10*
%TO.C,J5*%
X134620000Y-55880000D03*
D11*
X134620000Y-58420000D03*
X134620000Y-60960000D03*
X134620000Y-63500000D03*
X134620000Y-66040000D03*
X134620000Y-68580000D03*
X134620000Y-71120000D03*
%TD*%
M02*
