M48
; DRILL file {KiCad 9.0.2} date 2026-04-26T10:38:44+0530
; FORMAT={-:-/ absolute / metric / decimal}
; #@! TF.CreationDate,2026-04-26T10:38:44+05:30
; #@! TF.GenerationSoftware,Kicad,Pcbnew,9.0.2
; #@! TF.FileFunction,Plated,1,2,PTH
FMAT,2
METRIC
; #@! TA.AperFunction,Plated,PTH,ViaDrill
T1C0.300
; #@! TA.AperFunction,Plated,PTH,ComponentDrill
T2C0.600
; #@! TA.AperFunction,Plated,PTH,ComponentDrill
T3C0.800
; #@! TA.AperFunction,Plated,PTH,ComponentDrill
T4C1.000
%
G90
G05
T1
X66.04Y-48.26
X78.74Y-73.66
X93.98Y-20.32
X99.06Y-88.9
X99.06Y-93.98
X99.06Y-96.52
X104.14Y-22.86
X109.22Y-33.02
X119.38Y-66.04
X121.92Y-63.5
X124.46Y-66.04
X127.0Y-96.52
X132.08Y-93.98
X137.16Y-83.82
X139.7Y-81.28
T3
X66.04Y-53.34
X66.04Y-55.88
X76.2Y-53.34
X76.2Y-55.88
X94.02Y-91.44
X96.52Y-91.44
X101.64Y-91.44
X104.14Y-91.44
X111.76Y-91.44
X111.84Y-93.98
X116.76Y-91.44
X116.84Y-93.98
X124.46Y-43.18
X124.46Y-45.72
X134.62Y-43.18
X134.62Y-45.72
T4
X60.48Y-50.8
X60.48Y-53.34
X60.96Y-27.94
X60.96Y-30.48
X60.96Y-38.1
X60.96Y-40.64
X60.96Y-66.04
X81.28Y-22.86
X83.82Y-22.86
X86.36Y-22.86
X86.36Y-43.18
X86.36Y-45.72
X86.36Y-48.26
X86.36Y-50.8
X86.36Y-53.34
X86.36Y-55.88
X86.36Y-58.42
X86.36Y-60.96
X86.36Y-63.5
X86.36Y-66.04
X86.36Y-68.58
X86.36Y-71.12
X86.36Y-73.66
X86.36Y-76.2
X86.36Y-78.74
X88.9Y-22.86
X91.44Y-22.86
X93.98Y-22.86
X96.52Y-22.86
X99.06Y-22.86
X101.6Y-22.86
X104.14Y-22.86
X106.68Y-22.86
X109.22Y-22.86
X111.76Y-22.86
X114.3Y-22.86
X114.3Y-43.18
X114.3Y-45.72
X114.3Y-48.26
X114.3Y-50.8
X114.3Y-53.34
X114.3Y-55.88
X114.3Y-58.42
X114.3Y-60.96
X114.3Y-63.5
X114.3Y-66.04
X114.3Y-68.58
X114.3Y-71.12
X114.3Y-73.66
X114.3Y-76.2
X114.3Y-78.74
X134.62Y-25.4
X134.62Y-27.94
X134.62Y-30.48
X134.62Y-55.88
X134.62Y-58.42
X134.62Y-60.96
X134.62Y-63.5
X134.62Y-66.04
X134.62Y-68.58
X134.62Y-71.12
T2
G00X94.99Y-99.425
M15
G01X94.99Y-100.525
M16
G05
G00X94.99Y-103.855
M15
G01X94.99Y-104.455
M16
G05
G00X103.63Y-99.425
M15
G01X103.63Y-100.525
M16
G05
G00X103.63Y-103.855
M15
G01X103.63Y-104.455
M16
G05
M30
