%TF.GenerationSoftware,KiCad,Pcbnew,9.0.2*%
%TF.CreationDate,2026-04-26T10:36:09+05:30*%
%TF.ProjectId,Smart_Audio_Gadget,536d6172-745f-4417-9564-696f5f476164,rev?*%
%TF.SameCoordinates,Original*%
%TF.FileFunction,Legend,Top*%
%TF.FilePolarity,Positive*%
%FSLAX46Y46*%
G04 Gerber Fmt 4.6, Leading zero omitted, Abs format (unit mm)*
G04 Created by KiCad (PCBNEW 9.0.2) date 2026-04-26 10:36:09*
%MOMM*%
%LPD*%
G01*
G04 APERTURE LIST*
%ADD10C,0.150000*%
%ADD11C,0.120000*%
G04 APERTURE END LIST*
D10*
X77964819Y-23193333D02*
X78679104Y-23193333D01*
X78679104Y-23193333D02*
X78821961Y-23240952D01*
X78821961Y-23240952D02*
X78917200Y-23336190D01*
X78917200Y-23336190D02*
X78964819Y-23479047D01*
X78964819Y-23479047D02*
X78964819Y-23574285D01*
X77964819Y-22812380D02*
X77964819Y-22193333D01*
X77964819Y-22193333D02*
X78345771Y-22526666D01*
X78345771Y-22526666D02*
X78345771Y-22383809D01*
X78345771Y-22383809D02*
X78393390Y-22288571D01*
X78393390Y-22288571D02*
X78441009Y-22240952D01*
X78441009Y-22240952D02*
X78536247Y-22193333D01*
X78536247Y-22193333D02*
X78774342Y-22193333D01*
X78774342Y-22193333D02*
X78869580Y-22240952D01*
X78869580Y-22240952D02*
X78917200Y-22288571D01*
X78917200Y-22288571D02*
X78964819Y-22383809D01*
X78964819Y-22383809D02*
X78964819Y-22669523D01*
X78964819Y-22669523D02*
X78917200Y-22764761D01*
X78917200Y-22764761D02*
X78869580Y-22812380D01*
X70953333Y-53964819D02*
X70620000Y-53488628D01*
X70381905Y-53964819D02*
X70381905Y-52964819D01*
X70381905Y-52964819D02*
X70762857Y-52964819D01*
X70762857Y-52964819D02*
X70858095Y-53012438D01*
X70858095Y-53012438D02*
X70905714Y-53060057D01*
X70905714Y-53060057D02*
X70953333Y-53155295D01*
X70953333Y-53155295D02*
X70953333Y-53298152D01*
X70953333Y-53298152D02*
X70905714Y-53393390D01*
X70905714Y-53393390D02*
X70858095Y-53441009D01*
X70858095Y-53441009D02*
X70762857Y-53488628D01*
X70762857Y-53488628D02*
X70381905Y-53488628D01*
X71810476Y-53298152D02*
X71810476Y-53964819D01*
X71572381Y-52917200D02*
X71334286Y-53631485D01*
X71334286Y-53631485D02*
X71953333Y-53631485D01*
X134286666Y-22084819D02*
X134286666Y-22799104D01*
X134286666Y-22799104D02*
X134239047Y-22941961D01*
X134239047Y-22941961D02*
X134143809Y-23037200D01*
X134143809Y-23037200D02*
X134000952Y-23084819D01*
X134000952Y-23084819D02*
X133905714Y-23084819D01*
X134810476Y-23084819D02*
X135000952Y-23084819D01*
X135000952Y-23084819D02*
X135096190Y-23037200D01*
X135096190Y-23037200D02*
X135143809Y-22989580D01*
X135143809Y-22989580D02*
X135239047Y-22846723D01*
X135239047Y-22846723D02*
X135286666Y-22656247D01*
X135286666Y-22656247D02*
X135286666Y-22275295D01*
X135286666Y-22275295D02*
X135239047Y-22180057D01*
X135239047Y-22180057D02*
X135191428Y-22132438D01*
X135191428Y-22132438D02*
X135096190Y-22084819D01*
X135096190Y-22084819D02*
X134905714Y-22084819D01*
X134905714Y-22084819D02*
X134810476Y-22132438D01*
X134810476Y-22132438D02*
X134762857Y-22180057D01*
X134762857Y-22180057D02*
X134715238Y-22275295D01*
X134715238Y-22275295D02*
X134715238Y-22513390D01*
X134715238Y-22513390D02*
X134762857Y-22608628D01*
X134762857Y-22608628D02*
X134810476Y-22656247D01*
X134810476Y-22656247D02*
X134905714Y-22703866D01*
X134905714Y-22703866D02*
X135096190Y-22703866D01*
X135096190Y-22703866D02*
X135191428Y-22656247D01*
X135191428Y-22656247D02*
X135239047Y-22608628D01*
X135239047Y-22608628D02*
X135286666Y-22513390D01*
X129373333Y-43804819D02*
X129040000Y-43328628D01*
X128801905Y-43804819D02*
X128801905Y-42804819D01*
X128801905Y-42804819D02*
X129182857Y-42804819D01*
X129182857Y-42804819D02*
X129278095Y-42852438D01*
X129278095Y-42852438D02*
X129325714Y-42900057D01*
X129325714Y-42900057D02*
X129373333Y-42995295D01*
X129373333Y-42995295D02*
X129373333Y-43138152D01*
X129373333Y-43138152D02*
X129325714Y-43233390D01*
X129325714Y-43233390D02*
X129278095Y-43281009D01*
X129278095Y-43281009D02*
X129182857Y-43328628D01*
X129182857Y-43328628D02*
X128801905Y-43328628D01*
X130325714Y-43804819D02*
X129754286Y-43804819D01*
X130040000Y-43804819D02*
X130040000Y-42804819D01*
X130040000Y-42804819D02*
X129944762Y-42947676D01*
X129944762Y-42947676D02*
X129849524Y-43042914D01*
X129849524Y-43042914D02*
X129754286Y-43090533D01*
X114093333Y-89299580D02*
X114045714Y-89347200D01*
X114045714Y-89347200D02*
X113902857Y-89394819D01*
X113902857Y-89394819D02*
X113807619Y-89394819D01*
X113807619Y-89394819D02*
X113664762Y-89347200D01*
X113664762Y-89347200D02*
X113569524Y-89251961D01*
X113569524Y-89251961D02*
X113521905Y-89156723D01*
X113521905Y-89156723D02*
X113474286Y-88966247D01*
X113474286Y-88966247D02*
X113474286Y-88823390D01*
X113474286Y-88823390D02*
X113521905Y-88632914D01*
X113521905Y-88632914D02*
X113569524Y-88537676D01*
X113569524Y-88537676D02*
X113664762Y-88442438D01*
X113664762Y-88442438D02*
X113807619Y-88394819D01*
X113807619Y-88394819D02*
X113902857Y-88394819D01*
X113902857Y-88394819D02*
X114045714Y-88442438D01*
X114045714Y-88442438D02*
X114093333Y-88490057D01*
X115045714Y-89394819D02*
X114474286Y-89394819D01*
X114760000Y-89394819D02*
X114760000Y-88394819D01*
X114760000Y-88394819D02*
X114664762Y-88537676D01*
X114664762Y-88537676D02*
X114569524Y-88632914D01*
X114569524Y-88632914D02*
X114474286Y-88680533D01*
X129373333Y-41264819D02*
X129040000Y-40788628D01*
X128801905Y-41264819D02*
X128801905Y-40264819D01*
X128801905Y-40264819D02*
X129182857Y-40264819D01*
X129182857Y-40264819D02*
X129278095Y-40312438D01*
X129278095Y-40312438D02*
X129325714Y-40360057D01*
X129325714Y-40360057D02*
X129373333Y-40455295D01*
X129373333Y-40455295D02*
X129373333Y-40598152D01*
X129373333Y-40598152D02*
X129325714Y-40693390D01*
X129325714Y-40693390D02*
X129278095Y-40741009D01*
X129278095Y-40741009D02*
X129182857Y-40788628D01*
X129182857Y-40788628D02*
X128801905Y-40788628D01*
X129754286Y-40360057D02*
X129801905Y-40312438D01*
X129801905Y-40312438D02*
X129897143Y-40264819D01*
X129897143Y-40264819D02*
X130135238Y-40264819D01*
X130135238Y-40264819D02*
X130230476Y-40312438D01*
X130230476Y-40312438D02*
X130278095Y-40360057D01*
X130278095Y-40360057D02*
X130325714Y-40455295D01*
X130325714Y-40455295D02*
X130325714Y-40550533D01*
X130325714Y-40550533D02*
X130278095Y-40693390D01*
X130278095Y-40693390D02*
X129706667Y-41264819D01*
X129706667Y-41264819D02*
X130325714Y-41264819D01*
X102723333Y-87399580D02*
X102675714Y-87447200D01*
X102675714Y-87447200D02*
X102532857Y-87494819D01*
X102532857Y-87494819D02*
X102437619Y-87494819D01*
X102437619Y-87494819D02*
X102294762Y-87447200D01*
X102294762Y-87447200D02*
X102199524Y-87351961D01*
X102199524Y-87351961D02*
X102151905Y-87256723D01*
X102151905Y-87256723D02*
X102104286Y-87066247D01*
X102104286Y-87066247D02*
X102104286Y-86923390D01*
X102104286Y-86923390D02*
X102151905Y-86732914D01*
X102151905Y-86732914D02*
X102199524Y-86637676D01*
X102199524Y-86637676D02*
X102294762Y-86542438D01*
X102294762Y-86542438D02*
X102437619Y-86494819D01*
X102437619Y-86494819D02*
X102532857Y-86494819D01*
X102532857Y-86494819D02*
X102675714Y-86542438D01*
X102675714Y-86542438D02*
X102723333Y-86590057D01*
X103104286Y-86590057D02*
X103151905Y-86542438D01*
X103151905Y-86542438D02*
X103247143Y-86494819D01*
X103247143Y-86494819D02*
X103485238Y-86494819D01*
X103485238Y-86494819D02*
X103580476Y-86542438D01*
X103580476Y-86542438D02*
X103628095Y-86590057D01*
X103628095Y-86590057D02*
X103675714Y-86685295D01*
X103675714Y-86685295D02*
X103675714Y-86780533D01*
X103675714Y-86780533D02*
X103628095Y-86923390D01*
X103628095Y-86923390D02*
X103056667Y-87494819D01*
X103056667Y-87494819D02*
X103675714Y-87494819D01*
X114173333Y-91839580D02*
X114125714Y-91887200D01*
X114125714Y-91887200D02*
X113982857Y-91934819D01*
X113982857Y-91934819D02*
X113887619Y-91934819D01*
X113887619Y-91934819D02*
X113744762Y-91887200D01*
X113744762Y-91887200D02*
X113649524Y-91791961D01*
X113649524Y-91791961D02*
X113601905Y-91696723D01*
X113601905Y-91696723D02*
X113554286Y-91506247D01*
X113554286Y-91506247D02*
X113554286Y-91363390D01*
X113554286Y-91363390D02*
X113601905Y-91172914D01*
X113601905Y-91172914D02*
X113649524Y-91077676D01*
X113649524Y-91077676D02*
X113744762Y-90982438D01*
X113744762Y-90982438D02*
X113887619Y-90934819D01*
X113887619Y-90934819D02*
X113982857Y-90934819D01*
X113982857Y-90934819D02*
X114125714Y-90982438D01*
X114125714Y-90982438D02*
X114173333Y-91030057D01*
X115030476Y-91268152D02*
X115030476Y-91934819D01*
X114792381Y-90887200D02*
X114554286Y-91601485D01*
X114554286Y-91601485D02*
X115173333Y-91601485D01*
X98500476Y-96914819D02*
X98500476Y-97629104D01*
X98500476Y-97629104D02*
X98452857Y-97771961D01*
X98452857Y-97771961D02*
X98357619Y-97867200D01*
X98357619Y-97867200D02*
X98214762Y-97914819D01*
X98214762Y-97914819D02*
X98119524Y-97914819D01*
X99500476Y-97914819D02*
X98929048Y-97914819D01*
X99214762Y-97914819D02*
X99214762Y-96914819D01*
X99214762Y-96914819D02*
X99119524Y-97057676D01*
X99119524Y-97057676D02*
X99024286Y-97152914D01*
X99024286Y-97152914D02*
X98929048Y-97200533D01*
X100452857Y-97914819D02*
X99881429Y-97914819D01*
X100167143Y-97914819D02*
X100167143Y-96914819D01*
X100167143Y-96914819D02*
X100071905Y-97057676D01*
X100071905Y-97057676D02*
X99976667Y-97152914D01*
X99976667Y-97152914D02*
X99881429Y-97200533D01*
X95103333Y-87399580D02*
X95055714Y-87447200D01*
X95055714Y-87447200D02*
X94912857Y-87494819D01*
X94912857Y-87494819D02*
X94817619Y-87494819D01*
X94817619Y-87494819D02*
X94674762Y-87447200D01*
X94674762Y-87447200D02*
X94579524Y-87351961D01*
X94579524Y-87351961D02*
X94531905Y-87256723D01*
X94531905Y-87256723D02*
X94484286Y-87066247D01*
X94484286Y-87066247D02*
X94484286Y-86923390D01*
X94484286Y-86923390D02*
X94531905Y-86732914D01*
X94531905Y-86732914D02*
X94579524Y-86637676D01*
X94579524Y-86637676D02*
X94674762Y-86542438D01*
X94674762Y-86542438D02*
X94817619Y-86494819D01*
X94817619Y-86494819D02*
X94912857Y-86494819D01*
X94912857Y-86494819D02*
X95055714Y-86542438D01*
X95055714Y-86542438D02*
X95103333Y-86590057D01*
X95436667Y-86494819D02*
X96055714Y-86494819D01*
X96055714Y-86494819D02*
X95722381Y-86875771D01*
X95722381Y-86875771D02*
X95865238Y-86875771D01*
X95865238Y-86875771D02*
X95960476Y-86923390D01*
X95960476Y-86923390D02*
X96008095Y-86971009D01*
X96008095Y-86971009D02*
X96055714Y-87066247D01*
X96055714Y-87066247D02*
X96055714Y-87304342D01*
X96055714Y-87304342D02*
X96008095Y-87399580D01*
X96008095Y-87399580D02*
X95960476Y-87447200D01*
X95960476Y-87447200D02*
X95865238Y-87494819D01*
X95865238Y-87494819D02*
X95579524Y-87494819D01*
X95579524Y-87494819D02*
X95484286Y-87447200D01*
X95484286Y-87447200D02*
X95436667Y-87399580D01*
X112928095Y-96554819D02*
X112928095Y-97364342D01*
X112928095Y-97364342D02*
X112975714Y-97459580D01*
X112975714Y-97459580D02*
X113023333Y-97507200D01*
X113023333Y-97507200D02*
X113118571Y-97554819D01*
X113118571Y-97554819D02*
X113309047Y-97554819D01*
X113309047Y-97554819D02*
X113404285Y-97507200D01*
X113404285Y-97507200D02*
X113451904Y-97459580D01*
X113451904Y-97459580D02*
X113499523Y-97364342D01*
X113499523Y-97364342D02*
X113499523Y-96554819D01*
X114499523Y-97554819D02*
X113928095Y-97554819D01*
X114213809Y-97554819D02*
X114213809Y-96554819D01*
X114213809Y-96554819D02*
X114118571Y-96697676D01*
X114118571Y-96697676D02*
X114023333Y-96792914D01*
X114023333Y-96792914D02*
X113928095Y-96840533D01*
X60626666Y-34784819D02*
X60626666Y-35499104D01*
X60626666Y-35499104D02*
X60579047Y-35641961D01*
X60579047Y-35641961D02*
X60483809Y-35737200D01*
X60483809Y-35737200D02*
X60340952Y-35784819D01*
X60340952Y-35784819D02*
X60245714Y-35784819D01*
X61007619Y-34784819D02*
X61674285Y-34784819D01*
X61674285Y-34784819D02*
X61245714Y-35784819D01*
X60626666Y-24624819D02*
X60626666Y-25339104D01*
X60626666Y-25339104D02*
X60579047Y-25481961D01*
X60579047Y-25481961D02*
X60483809Y-25577200D01*
X60483809Y-25577200D02*
X60340952Y-25624819D01*
X60340952Y-25624819D02*
X60245714Y-25624819D01*
X61531428Y-24624819D02*
X61340952Y-24624819D01*
X61340952Y-24624819D02*
X61245714Y-24672438D01*
X61245714Y-24672438D02*
X61198095Y-24720057D01*
X61198095Y-24720057D02*
X61102857Y-24862914D01*
X61102857Y-24862914D02*
X61055238Y-25053390D01*
X61055238Y-25053390D02*
X61055238Y-25434342D01*
X61055238Y-25434342D02*
X61102857Y-25529580D01*
X61102857Y-25529580D02*
X61150476Y-25577200D01*
X61150476Y-25577200D02*
X61245714Y-25624819D01*
X61245714Y-25624819D02*
X61436190Y-25624819D01*
X61436190Y-25624819D02*
X61531428Y-25577200D01*
X61531428Y-25577200D02*
X61579047Y-25529580D01*
X61579047Y-25529580D02*
X61626666Y-25434342D01*
X61626666Y-25434342D02*
X61626666Y-25196247D01*
X61626666Y-25196247D02*
X61579047Y-25101009D01*
X61579047Y-25101009D02*
X61531428Y-25053390D01*
X61531428Y-25053390D02*
X61436190Y-25005771D01*
X61436190Y-25005771D02*
X61245714Y-25005771D01*
X61245714Y-25005771D02*
X61150476Y-25053390D01*
X61150476Y-25053390D02*
X61102857Y-25101009D01*
X61102857Y-25101009D02*
X61055238Y-25196247D01*
X71223333Y-51424819D02*
X70890000Y-50948628D01*
X70651905Y-51424819D02*
X70651905Y-50424819D01*
X70651905Y-50424819D02*
X71032857Y-50424819D01*
X71032857Y-50424819D02*
X71128095Y-50472438D01*
X71128095Y-50472438D02*
X71175714Y-50520057D01*
X71175714Y-50520057D02*
X71223333Y-50615295D01*
X71223333Y-50615295D02*
X71223333Y-50758152D01*
X71223333Y-50758152D02*
X71175714Y-50853390D01*
X71175714Y-50853390D02*
X71128095Y-50901009D01*
X71128095Y-50901009D02*
X71032857Y-50948628D01*
X71032857Y-50948628D02*
X70651905Y-50948628D01*
X71556667Y-50424819D02*
X72175714Y-50424819D01*
X72175714Y-50424819D02*
X71842381Y-50805771D01*
X71842381Y-50805771D02*
X71985238Y-50805771D01*
X71985238Y-50805771D02*
X72080476Y-50853390D01*
X72080476Y-50853390D02*
X72128095Y-50901009D01*
X72128095Y-50901009D02*
X72175714Y-50996247D01*
X72175714Y-50996247D02*
X72175714Y-51234342D01*
X72175714Y-51234342D02*
X72128095Y-51329580D01*
X72128095Y-51329580D02*
X72080476Y-51377200D01*
X72080476Y-51377200D02*
X71985238Y-51424819D01*
X71985238Y-51424819D02*
X71699524Y-51424819D01*
X71699524Y-51424819D02*
X71604286Y-51377200D01*
X71604286Y-51377200D02*
X71556667Y-51329580D01*
X60146666Y-47484819D02*
X60146666Y-48199104D01*
X60146666Y-48199104D02*
X60099047Y-48341961D01*
X60099047Y-48341961D02*
X60003809Y-48437200D01*
X60003809Y-48437200D02*
X59860952Y-48484819D01*
X59860952Y-48484819D02*
X59765714Y-48484819D01*
X60765714Y-47913390D02*
X60670476Y-47865771D01*
X60670476Y-47865771D02*
X60622857Y-47818152D01*
X60622857Y-47818152D02*
X60575238Y-47722914D01*
X60575238Y-47722914D02*
X60575238Y-47675295D01*
X60575238Y-47675295D02*
X60622857Y-47580057D01*
X60622857Y-47580057D02*
X60670476Y-47532438D01*
X60670476Y-47532438D02*
X60765714Y-47484819D01*
X60765714Y-47484819D02*
X60956190Y-47484819D01*
X60956190Y-47484819D02*
X61051428Y-47532438D01*
X61051428Y-47532438D02*
X61099047Y-47580057D01*
X61099047Y-47580057D02*
X61146666Y-47675295D01*
X61146666Y-47675295D02*
X61146666Y-47722914D01*
X61146666Y-47722914D02*
X61099047Y-47818152D01*
X61099047Y-47818152D02*
X61051428Y-47865771D01*
X61051428Y-47865771D02*
X60956190Y-47913390D01*
X60956190Y-47913390D02*
X60765714Y-47913390D01*
X60765714Y-47913390D02*
X60670476Y-47961009D01*
X60670476Y-47961009D02*
X60622857Y-48008628D01*
X60622857Y-48008628D02*
X60575238Y-48103866D01*
X60575238Y-48103866D02*
X60575238Y-48294342D01*
X60575238Y-48294342D02*
X60622857Y-48389580D01*
X60622857Y-48389580D02*
X60670476Y-48437200D01*
X60670476Y-48437200D02*
X60765714Y-48484819D01*
X60765714Y-48484819D02*
X60956190Y-48484819D01*
X60956190Y-48484819D02*
X61051428Y-48437200D01*
X61051428Y-48437200D02*
X61099047Y-48389580D01*
X61099047Y-48389580D02*
X61146666Y-48294342D01*
X61146666Y-48294342D02*
X61146666Y-48103866D01*
X61146666Y-48103866D02*
X61099047Y-48008628D01*
X61099047Y-48008628D02*
X61051428Y-47961009D01*
X61051428Y-47961009D02*
X60956190Y-47913390D01*
X113490476Y-39864819D02*
X113490476Y-40579104D01*
X113490476Y-40579104D02*
X113442857Y-40721961D01*
X113442857Y-40721961D02*
X113347619Y-40817200D01*
X113347619Y-40817200D02*
X113204762Y-40864819D01*
X113204762Y-40864819D02*
X113109524Y-40864819D01*
X114490476Y-40864819D02*
X113919048Y-40864819D01*
X114204762Y-40864819D02*
X114204762Y-39864819D01*
X114204762Y-39864819D02*
X114109524Y-40007676D01*
X114109524Y-40007676D02*
X114014286Y-40102914D01*
X114014286Y-40102914D02*
X113919048Y-40150533D01*
X114823810Y-39864819D02*
X115490476Y-39864819D01*
X115490476Y-39864819D02*
X115061905Y-40864819D01*
X60150476Y-62724819D02*
X60150476Y-63439104D01*
X60150476Y-63439104D02*
X60102857Y-63581961D01*
X60102857Y-63581961D02*
X60007619Y-63677200D01*
X60007619Y-63677200D02*
X59864762Y-63724819D01*
X59864762Y-63724819D02*
X59769524Y-63724819D01*
X61150476Y-63724819D02*
X60579048Y-63724819D01*
X60864762Y-63724819D02*
X60864762Y-62724819D01*
X60864762Y-62724819D02*
X60769524Y-62867676D01*
X60769524Y-62867676D02*
X60674286Y-62962914D01*
X60674286Y-62962914D02*
X60579048Y-63010533D01*
X61769524Y-62724819D02*
X61864762Y-62724819D01*
X61864762Y-62724819D02*
X61960000Y-62772438D01*
X61960000Y-62772438D02*
X62007619Y-62820057D01*
X62007619Y-62820057D02*
X62055238Y-62915295D01*
X62055238Y-62915295D02*
X62102857Y-63105771D01*
X62102857Y-63105771D02*
X62102857Y-63343866D01*
X62102857Y-63343866D02*
X62055238Y-63534342D01*
X62055238Y-63534342D02*
X62007619Y-63629580D01*
X62007619Y-63629580D02*
X61960000Y-63677200D01*
X61960000Y-63677200D02*
X61864762Y-63724819D01*
X61864762Y-63724819D02*
X61769524Y-63724819D01*
X61769524Y-63724819D02*
X61674286Y-63677200D01*
X61674286Y-63677200D02*
X61626667Y-63629580D01*
X61626667Y-63629580D02*
X61579048Y-63534342D01*
X61579048Y-63534342D02*
X61531429Y-63343866D01*
X61531429Y-63343866D02*
X61531429Y-63105771D01*
X61531429Y-63105771D02*
X61579048Y-62915295D01*
X61579048Y-62915295D02*
X61626667Y-62820057D01*
X61626667Y-62820057D02*
X61674286Y-62772438D01*
X61674286Y-62772438D02*
X61769524Y-62724819D01*
X86026666Y-39864819D02*
X86026666Y-40579104D01*
X86026666Y-40579104D02*
X85979047Y-40721961D01*
X85979047Y-40721961D02*
X85883809Y-40817200D01*
X85883809Y-40817200D02*
X85740952Y-40864819D01*
X85740952Y-40864819D02*
X85645714Y-40864819D01*
X87026666Y-40864819D02*
X86455238Y-40864819D01*
X86740952Y-40864819D02*
X86740952Y-39864819D01*
X86740952Y-39864819D02*
X86645714Y-40007676D01*
X86645714Y-40007676D02*
X86550476Y-40102914D01*
X86550476Y-40102914D02*
X86455238Y-40150533D01*
X134286666Y-52564819D02*
X134286666Y-53279104D01*
X134286666Y-53279104D02*
X134239047Y-53421961D01*
X134239047Y-53421961D02*
X134143809Y-53517200D01*
X134143809Y-53517200D02*
X134000952Y-53564819D01*
X134000952Y-53564819D02*
X133905714Y-53564819D01*
X135239047Y-52564819D02*
X134762857Y-52564819D01*
X134762857Y-52564819D02*
X134715238Y-53041009D01*
X134715238Y-53041009D02*
X134762857Y-52993390D01*
X134762857Y-52993390D02*
X134858095Y-52945771D01*
X134858095Y-52945771D02*
X135096190Y-52945771D01*
X135096190Y-52945771D02*
X135191428Y-52993390D01*
X135191428Y-52993390D02*
X135239047Y-53041009D01*
X135239047Y-53041009D02*
X135286666Y-53136247D01*
X135286666Y-53136247D02*
X135286666Y-53374342D01*
X135286666Y-53374342D02*
X135239047Y-53469580D01*
X135239047Y-53469580D02*
X135191428Y-53517200D01*
X135191428Y-53517200D02*
X135096190Y-53564819D01*
X135096190Y-53564819D02*
X134858095Y-53564819D01*
X134858095Y-53564819D02*
X134762857Y-53517200D01*
X134762857Y-53517200D02*
X134715238Y-53469580D01*
D11*
%TO.C,J3*%
X79950000Y-21530000D02*
X81280000Y-21530000D01*
X79950000Y-22860000D02*
X79950000Y-21530000D01*
X82550000Y-21530000D02*
X115630000Y-21530000D01*
X82550000Y-24190000D02*
X82550000Y-21530000D01*
X82550000Y-24190000D02*
X115630000Y-24190000D01*
X115630000Y-24190000D02*
X115630000Y-21530000D01*
%TO.C,R4*%
X67080000Y-55880000D02*
X67850000Y-55880000D01*
X75160000Y-55880000D02*
X74390000Y-55880000D01*
X67850000Y-54510000D02*
X74390000Y-54510000D01*
X74390000Y-57250000D01*
X67850000Y-57250000D01*
X67850000Y-54510000D01*
%TO.C,J9*%
X133290000Y-26670000D02*
X133290000Y-31810000D01*
X133290000Y-26670000D02*
X135950000Y-26670000D01*
X133290000Y-31810000D02*
X135950000Y-31810000D01*
X134620000Y-24070000D02*
X135950000Y-24070000D01*
X135950000Y-24070000D02*
X135950000Y-25400000D01*
X135950000Y-26670000D02*
X135950000Y-31810000D01*
%TO.C,R1*%
X125500000Y-45720000D02*
X126270000Y-45720000D01*
X133580000Y-45720000D02*
X132810000Y-45720000D01*
X126270000Y-44350000D02*
X132810000Y-44350000D01*
X132810000Y-47090000D01*
X126270000Y-47090000D01*
X126270000Y-44350000D01*
%TO.C,C1*%
X111640000Y-90070000D02*
X111640000Y-90407000D01*
X111640000Y-90070000D02*
X116880000Y-90070000D01*
X111640000Y-92473000D02*
X111640000Y-92810000D01*
X111640000Y-92810000D02*
X116880000Y-92810000D01*
X116880000Y-90070000D02*
X116880000Y-90407000D01*
X116880000Y-92473000D02*
X116880000Y-92810000D01*
%TO.C,R2*%
X125500000Y-43180000D02*
X126270000Y-43180000D01*
X133580000Y-43180000D02*
X132810000Y-43180000D01*
X126270000Y-41810000D02*
X132810000Y-41810000D01*
X132810000Y-44550000D01*
X126270000Y-44550000D01*
X126270000Y-41810000D01*
%TO.C,C2*%
X99389759Y-89601000D02*
X100019759Y-89601000D01*
X99704759Y-89286000D02*
X99704759Y-89916000D01*
X102890000Y-88210000D02*
X102890000Y-94670000D01*
X102930000Y-88210000D02*
X102930000Y-94670000D01*
X102970000Y-88211000D02*
X102970000Y-94669000D01*
X103010000Y-88212000D02*
X103010000Y-94668000D01*
X103050000Y-88214000D02*
X103050000Y-94666000D01*
X103090000Y-88216000D02*
X103090000Y-94664000D01*
X103130000Y-88219000D02*
X103130000Y-90400000D01*
X103130000Y-92480000D02*
X103130000Y-94661000D01*
X103170000Y-88222000D02*
X103170000Y-90400000D01*
X103170000Y-92480000D02*
X103170000Y-94658000D01*
X103210000Y-88226000D02*
X103210000Y-90400000D01*
X103210000Y-92480000D02*
X103210000Y-94654000D01*
X103250000Y-88230000D02*
X103250000Y-90400000D01*
X103250000Y-92480000D02*
X103250000Y-94650000D01*
X103290000Y-88235000D02*
X103290000Y-90400000D01*
X103290000Y-92480000D02*
X103290000Y-94645000D01*
X103330000Y-88240000D02*
X103330000Y-90400000D01*
X103330000Y-92480000D02*
X103330000Y-94640000D01*
X103370000Y-88245000D02*
X103370000Y-90400000D01*
X103370000Y-92480000D02*
X103370000Y-94635000D01*
X103410000Y-88252000D02*
X103410000Y-90400000D01*
X103410000Y-92480000D02*
X103410000Y-94628000D01*
X103450000Y-88258000D02*
X103450000Y-90400000D01*
X103450000Y-92480000D02*
X103450000Y-94622000D01*
X103490000Y-88266000D02*
X103490000Y-90400000D01*
X103490000Y-92480000D02*
X103490000Y-94614000D01*
X103530000Y-88273000D02*
X103530000Y-90400000D01*
X103530000Y-92480000D02*
X103530000Y-94607000D01*
X103570000Y-88281000D02*
X103570000Y-90400000D01*
X103570000Y-92480000D02*
X103570000Y-94599000D01*
X103610000Y-88290000D02*
X103610000Y-90400000D01*
X103610000Y-92480000D02*
X103610000Y-94590000D01*
X103650000Y-88300000D02*
X103650000Y-90400000D01*
X103650000Y-92480000D02*
X103650000Y-94580000D01*
X103690000Y-88309000D02*
X103690000Y-90400000D01*
X103690000Y-92480000D02*
X103690000Y-94571000D01*
X103730000Y-88320000D02*
X103730000Y-90400000D01*
X103730000Y-92480000D02*
X103730000Y-94560000D01*
X103770000Y-88331000D02*
X103770000Y-90400000D01*
X103770000Y-92480000D02*
X103770000Y-94549000D01*
X103810000Y-88342000D02*
X103810000Y-90400000D01*
X103810000Y-92480000D02*
X103810000Y-94538000D01*
X103850000Y-88354000D02*
X103850000Y-90400000D01*
X103850000Y-92480000D02*
X103850000Y-94526000D01*
X103890000Y-88367000D02*
X103890000Y-90400000D01*
X103890000Y-92480000D02*
X103890000Y-94513000D01*
X103930000Y-88380000D02*
X103930000Y-90400000D01*
X103930000Y-92480000D02*
X103930000Y-94500000D01*
X103970000Y-88393000D02*
X103970000Y-90400000D01*
X103970000Y-92480000D02*
X103970000Y-94487000D01*
X104010000Y-88408000D02*
X104010000Y-90400000D01*
X104010000Y-92480000D02*
X104010000Y-94472000D01*
X104050000Y-88423000D02*
X104050000Y-90400000D01*
X104050000Y-92480000D02*
X104050000Y-94457000D01*
X104090000Y-88438000D02*
X104090000Y-90400000D01*
X104090000Y-92480000D02*
X104090000Y-94442000D01*
X104130000Y-88454000D02*
X104130000Y-90400000D01*
X104130000Y-92480000D02*
X104130000Y-94426000D01*
X104170000Y-88471000D02*
X104170000Y-90400000D01*
X104170000Y-92480000D02*
X104170000Y-94409000D01*
X104210000Y-88488000D02*
X104210000Y-90400000D01*
X104210000Y-92480000D02*
X104210000Y-94392000D01*
X104250000Y-88506000D02*
X104250000Y-90400000D01*
X104250000Y-92480000D02*
X104250000Y-94374000D01*
X104290000Y-88525000D02*
X104290000Y-90400000D01*
X104290000Y-92480000D02*
X104290000Y-94355000D01*
X104330000Y-88544000D02*
X104330000Y-90400000D01*
X104330000Y-92480000D02*
X104330000Y-94336000D01*
X104370000Y-88564000D02*
X104370000Y-90400000D01*
X104370000Y-92480000D02*
X104370000Y-94316000D01*
X104410000Y-88585000D02*
X104410000Y-90400000D01*
X104410000Y-92480000D02*
X104410000Y-94295000D01*
X104450000Y-88606000D02*
X104450000Y-90400000D01*
X104450000Y-92480000D02*
X104450000Y-94274000D01*
X104490000Y-88628000D02*
X104490000Y-90400000D01*
X104490000Y-92480000D02*
X104490000Y-94252000D01*
X104530000Y-88651000D02*
X104530000Y-90400000D01*
X104530000Y-92480000D02*
X104530000Y-94229000D01*
X104570000Y-88675000D02*
X104570000Y-90400000D01*
X104570000Y-92480000D02*
X104570000Y-94205000D01*
X104610000Y-88699000D02*
X104610000Y-90400000D01*
X104610000Y-92480000D02*
X104610000Y-94181000D01*
X104650000Y-88724000D02*
X104650000Y-90400000D01*
X104650000Y-92480000D02*
X104650000Y-94156000D01*
X104690000Y-88750000D02*
X104690000Y-90400000D01*
X104690000Y-92480000D02*
X104690000Y-94130000D01*
X104730000Y-88777000D02*
X104730000Y-90400000D01*
X104730000Y-92480000D02*
X104730000Y-94103000D01*
X104770000Y-88804000D02*
X104770000Y-90400000D01*
X104770000Y-92480000D02*
X104770000Y-94076000D01*
X104810000Y-88833000D02*
X104810000Y-90400000D01*
X104810000Y-92480000D02*
X104810000Y-94047000D01*
X104850000Y-88863000D02*
X104850000Y-90400000D01*
X104850000Y-92480000D02*
X104850000Y-94017000D01*
X104890000Y-88893000D02*
X104890000Y-90400000D01*
X104890000Y-92480000D02*
X104890000Y-93987000D01*
X104930000Y-88924000D02*
X104930000Y-90400000D01*
X104930000Y-92480000D02*
X104930000Y-93956000D01*
X104970000Y-88957000D02*
X104970000Y-90400000D01*
X104970000Y-92480000D02*
X104970000Y-93923000D01*
X105010000Y-88990000D02*
X105010000Y-90400000D01*
X105010000Y-92480000D02*
X105010000Y-93890000D01*
X105050000Y-89025000D02*
X105050000Y-90400000D01*
X105050000Y-92480000D02*
X105050000Y-93855000D01*
X105090000Y-89061000D02*
X105090000Y-90400000D01*
X105090000Y-92480000D02*
X105090000Y-93819000D01*
X105130000Y-89098000D02*
X105130000Y-90400000D01*
X105130000Y-92480000D02*
X105130000Y-93782000D01*
X105170000Y-89136000D02*
X105170000Y-90400000D01*
X105170000Y-92480000D02*
X105170000Y-93744000D01*
X105210000Y-89176000D02*
X105210000Y-93704000D01*
X105250000Y-89217000D02*
X105250000Y-93663000D01*
X105290000Y-89259000D02*
X105290000Y-93621000D01*
X105330000Y-89303000D02*
X105330000Y-93577000D01*
X105370000Y-89349000D02*
X105370000Y-93531000D01*
X105410000Y-89396000D02*
X105410000Y-93484000D01*
X105450000Y-89445000D02*
X105450000Y-93435000D01*
X105490000Y-89497000D02*
X105490000Y-93383000D01*
X105530000Y-89550000D02*
X105530000Y-93330000D01*
X105570000Y-89606000D02*
X105570000Y-93274000D01*
X105610000Y-89665000D02*
X105610000Y-93215000D01*
X105650000Y-89726000D02*
X105650000Y-93154000D01*
X105690000Y-89791000D02*
X105690000Y-93089000D01*
X105730000Y-89859000D02*
X105730000Y-93021000D01*
X105770000Y-89931000D02*
X105770000Y-92949000D01*
X105810000Y-90008000D02*
X105810000Y-92872000D01*
X105850000Y-90090000D02*
X105850000Y-92790000D01*
X105890000Y-90179000D02*
X105890000Y-92701000D01*
X105930000Y-90275000D02*
X105930000Y-92605000D01*
X105970000Y-90382000D02*
X105970000Y-92498000D01*
X106010000Y-90501000D02*
X106010000Y-92379000D01*
X106050000Y-90639000D02*
X106050000Y-92241000D01*
X106090000Y-90807000D02*
X106090000Y-92073000D01*
X106130000Y-91038000D02*
X106130000Y-91842000D01*
X106160000Y-91440000D02*
G75*
G02*
X99620000Y-91440000I-3270000J0D01*
G01*
X99620000Y-91440000D02*
G75*
G02*
X106160000Y-91440000I3270000J0D01*
G01*
%TO.C,C4*%
X111720000Y-92610000D02*
X111720000Y-92947000D01*
X111720000Y-92610000D02*
X116960000Y-92610000D01*
X111720000Y-95013000D02*
X111720000Y-95350000D01*
X111720000Y-95350000D02*
X116960000Y-95350000D01*
X116960000Y-92610000D02*
X116960000Y-92947000D01*
X116960000Y-95013000D02*
X116960000Y-95350000D01*
%TO.C,J11*%
X94610000Y-101205000D02*
X94610000Y-103205000D01*
X94610000Y-105105000D02*
X94610000Y-107005000D01*
X94610000Y-107005000D02*
X104010000Y-107005000D01*
X104010000Y-101205000D02*
X104010000Y-103205000D01*
X104010000Y-105105000D02*
X104010000Y-107005000D01*
%TO.C,C3*%
X91769759Y-89601000D02*
X92399759Y-89601000D01*
X92084759Y-89286000D02*
X92084759Y-89916000D01*
X95270000Y-88210000D02*
X95270000Y-94670000D01*
X95310000Y-88210000D02*
X95310000Y-94670000D01*
X95350000Y-88211000D02*
X95350000Y-94669000D01*
X95390000Y-88212000D02*
X95390000Y-94668000D01*
X95430000Y-88214000D02*
X95430000Y-94666000D01*
X95470000Y-88216000D02*
X95470000Y-94664000D01*
X95510000Y-88219000D02*
X95510000Y-90400000D01*
X95510000Y-92480000D02*
X95510000Y-94661000D01*
X95550000Y-88222000D02*
X95550000Y-90400000D01*
X95550000Y-92480000D02*
X95550000Y-94658000D01*
X95590000Y-88226000D02*
X95590000Y-90400000D01*
X95590000Y-92480000D02*
X95590000Y-94654000D01*
X95630000Y-88230000D02*
X95630000Y-90400000D01*
X95630000Y-92480000D02*
X95630000Y-94650000D01*
X95670000Y-88235000D02*
X95670000Y-90400000D01*
X95670000Y-92480000D02*
X95670000Y-94645000D01*
X95710000Y-88240000D02*
X95710000Y-90400000D01*
X95710000Y-92480000D02*
X95710000Y-94640000D01*
X95750000Y-88245000D02*
X95750000Y-90400000D01*
X95750000Y-92480000D02*
X95750000Y-94635000D01*
X95790000Y-88252000D02*
X95790000Y-90400000D01*
X95790000Y-92480000D02*
X95790000Y-94628000D01*
X95830000Y-88258000D02*
X95830000Y-90400000D01*
X95830000Y-92480000D02*
X95830000Y-94622000D01*
X95870000Y-88266000D02*
X95870000Y-90400000D01*
X95870000Y-92480000D02*
X95870000Y-94614000D01*
X95910000Y-88273000D02*
X95910000Y-90400000D01*
X95910000Y-92480000D02*
X95910000Y-94607000D01*
X95950000Y-88281000D02*
X95950000Y-90400000D01*
X95950000Y-92480000D02*
X95950000Y-94599000D01*
X95990000Y-88290000D02*
X95990000Y-90400000D01*
X95990000Y-92480000D02*
X95990000Y-94590000D01*
X96030000Y-88300000D02*
X96030000Y-90400000D01*
X96030000Y-92480000D02*
X96030000Y-94580000D01*
X96070000Y-88309000D02*
X96070000Y-90400000D01*
X96070000Y-92480000D02*
X96070000Y-94571000D01*
X96110000Y-88320000D02*
X96110000Y-90400000D01*
X96110000Y-92480000D02*
X96110000Y-94560000D01*
X96150000Y-88331000D02*
X96150000Y-90400000D01*
X96150000Y-92480000D02*
X96150000Y-94549000D01*
X96190000Y-88342000D02*
X96190000Y-90400000D01*
X96190000Y-92480000D02*
X96190000Y-94538000D01*
X96230000Y-88354000D02*
X96230000Y-90400000D01*
X96230000Y-92480000D02*
X96230000Y-94526000D01*
X96270000Y-88367000D02*
X96270000Y-90400000D01*
X96270000Y-92480000D02*
X96270000Y-94513000D01*
X96310000Y-88380000D02*
X96310000Y-90400000D01*
X96310000Y-92480000D02*
X96310000Y-94500000D01*
X96350000Y-88393000D02*
X96350000Y-90400000D01*
X96350000Y-92480000D02*
X96350000Y-94487000D01*
X96390000Y-88408000D02*
X96390000Y-90400000D01*
X96390000Y-92480000D02*
X96390000Y-94472000D01*
X96430000Y-88423000D02*
X96430000Y-90400000D01*
X96430000Y-92480000D02*
X96430000Y-94457000D01*
X96470000Y-88438000D02*
X96470000Y-90400000D01*
X96470000Y-92480000D02*
X96470000Y-94442000D01*
X96510000Y-88454000D02*
X96510000Y-90400000D01*
X96510000Y-92480000D02*
X96510000Y-94426000D01*
X96550000Y-88471000D02*
X96550000Y-90400000D01*
X96550000Y-92480000D02*
X96550000Y-94409000D01*
X96590000Y-88488000D02*
X96590000Y-90400000D01*
X96590000Y-92480000D02*
X96590000Y-94392000D01*
X96630000Y-88506000D02*
X96630000Y-90400000D01*
X96630000Y-92480000D02*
X96630000Y-94374000D01*
X96670000Y-88525000D02*
X96670000Y-90400000D01*
X96670000Y-92480000D02*
X96670000Y-94355000D01*
X96710000Y-88544000D02*
X96710000Y-90400000D01*
X96710000Y-92480000D02*
X96710000Y-94336000D01*
X96750000Y-88564000D02*
X96750000Y-90400000D01*
X96750000Y-92480000D02*
X96750000Y-94316000D01*
X96790000Y-88585000D02*
X96790000Y-90400000D01*
X96790000Y-92480000D02*
X96790000Y-94295000D01*
X96830000Y-88606000D02*
X96830000Y-90400000D01*
X96830000Y-92480000D02*
X96830000Y-94274000D01*
X96870000Y-88628000D02*
X96870000Y-90400000D01*
X96870000Y-92480000D02*
X96870000Y-94252000D01*
X96910000Y-88651000D02*
X96910000Y-90400000D01*
X96910000Y-92480000D02*
X96910000Y-94229000D01*
X96950000Y-88675000D02*
X96950000Y-90400000D01*
X96950000Y-92480000D02*
X96950000Y-94205000D01*
X96990000Y-88699000D02*
X96990000Y-90400000D01*
X96990000Y-92480000D02*
X96990000Y-94181000D01*
X97030000Y-88724000D02*
X97030000Y-90400000D01*
X97030000Y-92480000D02*
X97030000Y-94156000D01*
X97070000Y-88750000D02*
X97070000Y-90400000D01*
X97070000Y-92480000D02*
X97070000Y-94130000D01*
X97110000Y-88777000D02*
X97110000Y-90400000D01*
X97110000Y-92480000D02*
X97110000Y-94103000D01*
X97150000Y-88804000D02*
X97150000Y-90400000D01*
X97150000Y-92480000D02*
X97150000Y-94076000D01*
X97190000Y-88833000D02*
X97190000Y-90400000D01*
X97190000Y-92480000D02*
X97190000Y-94047000D01*
X97230000Y-88863000D02*
X97230000Y-90400000D01*
X97230000Y-92480000D02*
X97230000Y-94017000D01*
X97270000Y-88893000D02*
X97270000Y-90400000D01*
X97270000Y-92480000D02*
X97270000Y-93987000D01*
X97310000Y-88924000D02*
X97310000Y-90400000D01*
X97310000Y-92480000D02*
X97310000Y-93956000D01*
X97350000Y-88957000D02*
X97350000Y-90400000D01*
X97350000Y-92480000D02*
X97350000Y-93923000D01*
X97390000Y-88990000D02*
X97390000Y-90400000D01*
X97390000Y-92480000D02*
X97390000Y-93890000D01*
X97430000Y-89025000D02*
X97430000Y-90400000D01*
X97430000Y-92480000D02*
X97430000Y-93855000D01*
X97470000Y-89061000D02*
X97470000Y-90400000D01*
X97470000Y-92480000D02*
X97470000Y-93819000D01*
X97510000Y-89098000D02*
X97510000Y-90400000D01*
X97510000Y-92480000D02*
X97510000Y-93782000D01*
X97550000Y-89136000D02*
X97550000Y-90400000D01*
X97550000Y-92480000D02*
X97550000Y-93744000D01*
X97590000Y-89176000D02*
X97590000Y-93704000D01*
X97630000Y-89217000D02*
X97630000Y-93663000D01*
X97670000Y-89259000D02*
X97670000Y-93621000D01*
X97710000Y-89303000D02*
X97710000Y-93577000D01*
X97750000Y-89349000D02*
X97750000Y-93531000D01*
X97790000Y-89396000D02*
X97790000Y-93484000D01*
X97830000Y-89445000D02*
X97830000Y-93435000D01*
X97870000Y-89497000D02*
X97870000Y-93383000D01*
X97910000Y-89550000D02*
X97910000Y-93330000D01*
X97950000Y-89606000D02*
X97950000Y-93274000D01*
X97990000Y-89665000D02*
X97990000Y-93215000D01*
X98030000Y-89726000D02*
X98030000Y-93154000D01*
X98070000Y-89791000D02*
X98070000Y-93089000D01*
X98110000Y-89859000D02*
X98110000Y-93021000D01*
X98150000Y-89931000D02*
X98150000Y-92949000D01*
X98190000Y-90008000D02*
X98190000Y-92872000D01*
X98230000Y-90090000D02*
X98230000Y-92790000D01*
X98270000Y-90179000D02*
X98270000Y-92701000D01*
X98310000Y-90275000D02*
X98310000Y-92605000D01*
X98350000Y-90382000D02*
X98350000Y-92498000D01*
X98390000Y-90501000D02*
X98390000Y-92379000D01*
X98430000Y-90639000D02*
X98430000Y-92241000D01*
X98470000Y-90807000D02*
X98470000Y-92073000D01*
X98510000Y-91038000D02*
X98510000Y-91842000D01*
X98540000Y-91440000D02*
G75*
G02*
X92000000Y-91440000I-3270000J0D01*
G01*
X92000000Y-91440000D02*
G75*
G02*
X98540000Y-91440000I3270000J0D01*
G01*
%TO.C,U1*%
X111840000Y-98190000D02*
X115600000Y-98190000D01*
X111840000Y-105010000D02*
X115600000Y-105010000D01*
X115600000Y-98190000D02*
X115600000Y-99450000D01*
X115600000Y-105010000D02*
X115600000Y-103750000D01*
X110560000Y-98290000D02*
X110320000Y-97960000D01*
X110800000Y-97960000D01*
X110560000Y-98290000D01*
G36*
X110560000Y-98290000D02*
G01*
X110320000Y-97960000D01*
X110800000Y-97960000D01*
X110560000Y-98290000D01*
G37*
%TO.C,J7*%
X59630000Y-39370000D02*
X59630000Y-41970000D01*
X59630000Y-39370000D02*
X62290000Y-39370000D01*
X59630000Y-41970000D02*
X62290000Y-41970000D01*
X60960000Y-36770000D02*
X62290000Y-36770000D01*
X62290000Y-36770000D02*
X62290000Y-38100000D01*
X62290000Y-39370000D02*
X62290000Y-41970000D01*
%TO.C,J6*%
X59630000Y-29210000D02*
X59630000Y-31810000D01*
X59630000Y-29210000D02*
X62290000Y-29210000D01*
X59630000Y-31810000D02*
X62290000Y-31810000D01*
X60960000Y-26610000D02*
X62290000Y-26610000D01*
X62290000Y-26610000D02*
X62290000Y-27940000D01*
X62290000Y-29210000D02*
X62290000Y-31810000D01*
%TO.C,R3*%
X67080000Y-53340000D02*
X67850000Y-53340000D01*
X75160000Y-53340000D02*
X74390000Y-53340000D01*
X67850000Y-51970000D02*
X74390000Y-51970000D01*
X74390000Y-54710000D01*
X67850000Y-54710000D01*
X67850000Y-51970000D01*
%TO.C,J8*%
X59150000Y-52070000D02*
X59150000Y-54670000D01*
X59150000Y-52070000D02*
X61810000Y-52070000D01*
X59150000Y-54670000D02*
X61810000Y-54670000D01*
X60480000Y-49470000D02*
X61810000Y-49470000D01*
X61810000Y-49470000D02*
X61810000Y-50800000D01*
X61810000Y-52070000D02*
X61810000Y-54670000D01*
%TO.C,J17*%
X112970000Y-44450000D02*
X112970000Y-80070000D01*
X112970000Y-44450000D02*
X115630000Y-44450000D01*
X112970000Y-80070000D02*
X115630000Y-80070000D01*
X114300000Y-41850000D02*
X115630000Y-41850000D01*
X115630000Y-41850000D02*
X115630000Y-43180000D01*
X115630000Y-44450000D02*
X115630000Y-80070000D01*
%TO.C,J10*%
X59630000Y-67250000D02*
X59630000Y-67370000D01*
X59630000Y-67370000D02*
X62290000Y-67370000D01*
X60960000Y-64710000D02*
X62290000Y-64710000D01*
X62290000Y-64710000D02*
X62290000Y-66040000D01*
X62290000Y-67250000D02*
X62290000Y-67370000D01*
%TO.C,J1*%
X85030000Y-44450000D02*
X85030000Y-80070000D01*
X85030000Y-44450000D02*
X87690000Y-44450000D01*
X85030000Y-80070000D02*
X87690000Y-80070000D01*
X86360000Y-41850000D02*
X87690000Y-41850000D01*
X87690000Y-41850000D02*
X87690000Y-43180000D01*
X87690000Y-44450000D02*
X87690000Y-80070000D01*
%TO.C,J5*%
X133290000Y-57150000D02*
X133290000Y-72450000D01*
X133290000Y-57150000D02*
X135950000Y-57150000D01*
X133290000Y-72450000D02*
X135950000Y-72450000D01*
X134620000Y-54550000D02*
X135950000Y-54550000D01*
X135950000Y-54550000D02*
X135950000Y-55880000D01*
X135950000Y-57150000D02*
X135950000Y-72450000D01*
%TD*%
M02*
